<svg width="24" height="22" viewBox="0 0 24 22" xmlns="http://www.w3.org/2000/svg">
  <path d="M16.775 3.57499L20.5333 7.45077C20.6917 7.61405 20.6917 7.88046 20.5333 8.04374L11.4333 17.4281L7.56667 17.8707C7.05 17.9309 6.6125 17.4797 6.67083 16.9469L7.1 12.9594L16.2 3.57499C16.3583 3.41171 16.6167 3.41171 16.775 3.57499ZM23.525 2.59101L21.4917 0.494132C20.8583 -0.158994 19.8292 -0.158994 19.1917 0.494132L17.7167 2.01523C17.5583 2.17851 17.5583 2.44491 17.7167 2.60819L21.475 6.48398C21.6333 6.64726 21.8917 6.64726 22.05 6.48398L23.525 4.96288C24.1583 4.30546 24.1583 3.24413 23.525 2.59101ZM16 14.8758V19.25H2.66667V5.49999H12.2417C12.375 5.49999 12.5 5.44413 12.5958 5.3496L14.2625 3.63085C14.5792 3.30429 14.3542 2.74999 13.9083 2.74999H2C0.895833 2.74999 0 3.67382 0 4.81249V19.9375C0 21.0762 0.895833 22 2 22H16.6667C17.7708 22 18.6667 21.0762 18.6667 19.9375V13.157C18.6667 12.6973 18.1292 12.4695 17.8125 12.7918L16.1458 14.5105C16.0542 14.6094 16 14.7383 16 14.8758Z"/>
</svg>
