<svg width="21" height="23" viewBox="0 0 21 23" xmlns="http://www.w3.org/2000/svg">
  <path d="M20.3438 17.25H2.625V3.59375C2.625 3.19664 2.33133 2.875 1.96875 2.875H0.65625C0.293672 2.875 0 3.19664 0 3.59375V18.6875C0 19.4813 0.587754 20.125 1.3125 20.125H20.3438C20.7063 20.125 21 19.8034 21 19.4062V17.9688C21 17.5716 20.7063 17.25 20.3438 17.25ZM19.0312 4.3125H14.1889C13.312 4.3125 12.8728 5.47373 13.4929 6.15295L14.8218 7.60842L11.8125 10.9048L8.80318 7.60887C8.29049 7.04734 7.45951 7.04734 6.94723 7.60887L4.12986 10.6946C3.87352 10.9753 3.87352 11.4304 4.12986 11.7111L5.05764 12.7273C5.31398 13.008 5.72947 13.008 5.98582 12.7273L7.875 10.6577L10.8843 13.9536C11.397 14.5152 12.228 14.5152 12.7403 13.9536L16.6778 9.64113L18.0067 11.0966C18.6268 11.7758 19.6871 11.2947 19.6871 10.3343V5.03125C19.6875 4.63414 19.3938 4.3125 19.0312 4.3125Z"/>
</svg>
