<svg width="98" height="61" viewBox="0 0 98 61" xmlns="http://www.w3.org/2000/svg">
  <path d="M25.6916 21V-1.43051e-06H28.3016V18.72H34.9916V21H25.6916ZM48.1363 16.2C48.1363 17.88 47.7163 19.1 46.8763 19.86C46.0563 20.62 44.7763 21 43.0363 21H42.6463C40.9063 21 39.6163 20.62 38.7763 19.86C37.9563 19.1 37.5463 17.88 37.5463 16.2V10.8C37.5463 9.12 37.9563 7.9 38.7763 7.14C39.6163 6.38 40.9063 6 42.6463 6H43.0363C44.7763 6 46.0563 6.38 46.8763 7.14C47.7163 7.9 48.1363 9.12 48.1363 10.8V16.2ZM45.5863 10.2C45.5863 9.58 45.3963 9.1 45.0163 8.76C44.6363 8.42 44.0763 8.25 43.3363 8.25H42.3463C41.6063 8.25 41.0463 8.42 40.6663 8.76C40.2863 9.1 40.0963 9.58 40.0963 10.2V16.8C40.0963 17.42 40.2863 17.9 40.6663 18.24C41.0463 18.58 41.6063 18.75 42.3463 18.75H43.3363C44.0763 18.75 44.6363 18.58 45.0163 18.24C45.3963 17.9 45.5863 17.42 45.5863 16.8V10.2ZM63.5612 22.05C63.5612 23.41 63.1512 24.42 62.3312 25.08C61.5312 25.76 60.2712 26.1 58.5512 26.1H52.4912V23.85H58.8512C59.5712 23.85 60.1112 23.71 60.4712 23.43C60.8312 23.15 61.0112 22.79 61.0112 22.35V21.39C61.0112 20.93 60.8312 20.57 60.4712 20.31C60.1112 20.03 59.5712 19.89 58.8512 19.89H53.8412V15.75C53.1812 15.39 52.6912 14.87 52.3712 14.19C52.0512 13.51 51.8912 12.63 51.8912 11.55V10.8C51.8912 9.12 52.3012 7.9 53.1212 7.14C53.9612 6.38 55.2512 6 56.9912 6H63.1112V11.55C63.1112 13.05 62.7012 14.23 61.8812 15.09C61.0612 15.93 59.9712 16.35 58.6112 16.35H56.3912V17.64H58.5512C60.2712 17.64 61.5312 17.98 62.3312 18.66C63.1512 19.32 63.5612 20.33 63.5612 21.69V22.05ZM58.6112 14.1C59.2312 14.1 59.7012 13.9 60.0212 13.5C60.3412 13.1 60.5212 12.68 60.5612 12.24V8.25H56.6912C55.9512 8.25 55.3912 8.42 55.0112 8.76C54.6312 9.1 54.4412 9.58 54.4412 10.2V12.15C54.4412 12.77 54.6312 13.25 55.0112 13.59C55.3912 13.93 55.9512 14.1 56.6912 14.1H58.6112ZM11.4108 55V36.16L8.20078 47.95H5.71078L2.50078 36.16V55H0.100781V34H4.33078L7.06078 44.74L9.76078 34H13.9008V55H11.4108ZM27.6973 55C27.4373 55 27.1473 54.92 26.8273 54.76C26.5273 54.6 26.2673 54.38 26.0473 54.1C25.5873 54.7 24.9773 55 24.2173 55H22.1473C20.6273 55 19.5173 54.7 18.8173 54.1C18.1373 53.48 17.7973 52.43 17.7973 50.95V50.35C17.7973 47.25 19.2573 45.7 22.1773 45.7H25.2973V44.2C25.2973 43.58 25.1073 43.1 24.7273 42.76C24.3473 42.42 23.7873 42.25 23.0473 42.25H18.9973V40H22.7473C24.4873 40 25.7673 40.38 26.5873 41.14C27.4273 41.9 27.8473 43.12 27.8473 44.8V52C27.8473 52.3 27.9573 52.53 28.1773 52.69C28.4173 52.83 28.8073 52.9 29.3473 52.9V55H27.6973ZM23.9173 52.75C24.5173 52.75 24.8973 52.61 25.0573 52.33C25.2173 52.05 25.2973 51.69 25.2973 51.25V47.95H22.1473C21.6273 47.95 21.1973 48.12 20.8573 48.46C20.5173 48.8 20.3473 49.23 20.3473 49.75V51.25C20.3473 51.77 20.4673 52.15 20.7073 52.39C20.9473 52.63 21.3273 52.75 21.8473 52.75H23.9173ZM32.9391 40H35.3391V40.72C35.9591 40.24 36.7591 40 37.7391 40H38.5191C40.1391 40 41.3391 40.38 42.1191 41.14C42.9191 41.9 43.3191 43.12 43.3191 44.8V55H40.7691V44.2C40.7691 43.6 40.5891 43.13 40.2291 42.79C39.8891 42.43 39.4191 42.25 38.8191 42.25H37.4391C36.7791 42.25 36.2891 42.43 35.9691 42.79C35.6491 43.13 35.4891 43.5 35.4891 43.9V55H32.9391V40ZM56.8184 55C56.5584 55 56.2684 54.92 55.9484 54.76C55.6484 54.6 55.3884 54.38 55.1684 54.1C54.7084 54.7 54.0984 55 53.3384 55H51.2684C49.7484 55 48.6384 54.7 47.9384 54.1C47.2584 53.48 46.9184 52.43 46.9184 50.95V50.35C46.9184 47.25 48.3784 45.7 51.2984 45.7H54.4184V44.2C54.4184 43.58 54.2284 43.1 53.8484 42.76C53.4684 42.42 52.9084 42.25 52.1684 42.25H48.1184V40H51.8684C53.6084 40 54.8884 40.38 55.7084 41.14C56.5484 41.9 56.9684 43.12 56.9684 44.8V52C56.9684 52.3 57.0784 52.53 57.2984 52.69C57.5384 52.83 57.9284 52.9 58.4684 52.9V55H56.8184ZM53.0384 52.75C53.6384 52.75 54.0184 52.61 54.1784 52.33C54.3384 52.05 54.4184 51.69 54.4184 51.25V47.95H51.2684C50.7484 47.95 50.3184 48.12 49.9784 48.46C49.6384 48.8 49.4684 49.23 49.4684 49.75V51.25C49.4684 51.77 49.5884 52.15 49.8284 52.39C50.0684 52.63 50.4484 52.75 50.9684 52.75H53.0384ZM72.9802 56.05C72.9802 57.41 72.5702 58.42 71.7502 59.08C70.9502 59.76 69.6902 60.1 67.9702 60.1H61.9102V57.85H68.2702C68.9902 57.85 69.5302 57.71 69.8902 57.43C70.2502 57.15 70.4302 56.79 70.4302 56.35V55.39C70.4302 54.93 70.2502 54.57 69.8902 54.31C69.5302 54.03 68.9902 53.89 68.2702 53.89H63.2602V49.75C62.6002 49.39 62.1102 48.87 61.7902 48.19C61.4702 47.51 61.3102 46.63 61.3102 45.55V44.8C61.3102 43.12 61.7202 41.9 62.5402 41.14C63.3802 40.38 64.6702 40 66.4102 40H72.5302V45.55C72.5302 47.05 72.1202 48.23 71.3002 49.09C70.4802 49.93 69.3902 50.35 68.0302 50.35H65.8102V51.64H67.9702C69.6902 51.64 70.9502 51.98 71.7502 52.66C72.5702 53.32 72.9802 54.33 72.9802 55.69V56.05ZM68.0302 48.1C68.6502 48.1 69.1202 47.9 69.4402 47.5C69.7602 47.1 69.9402 46.68 69.9802 46.24V42.25H66.1102C65.3702 42.25 64.8102 42.42 64.4302 42.76C64.0502 43.1 63.8602 43.58 63.8602 44.2V46.15C63.8602 46.77 64.0502 47.25 64.4302 47.59C64.8102 47.93 65.3702 48.1 66.1102 48.1H68.0302ZM81.6844 55C79.9244 55 78.6344 54.63 77.8144 53.89C76.9944 53.13 76.5844 51.9 76.5844 50.2V44.8C76.5844 43.08 76.9544 41.85 77.6944 41.11C78.4344 40.37 79.6644 40 81.3844 40H82.1944C83.6144 40 84.6844 40.4 85.4044 41.2C86.1444 41.98 86.5144 43.13 86.5144 44.65V48.55H79.1344V50.8C79.1344 51.42 79.3244 51.9 79.7044 52.24C80.0844 52.58 80.6444 52.75 81.3844 52.75H85.5544V55H81.6844ZM84.0244 46.3V44.05C84.0244 43.53 83.8544 43.1 83.5144 42.76C83.1744 42.42 82.7444 42.25 82.2244 42.25H81.0844C80.3644 42.25 79.8544 42.42 79.5544 42.76C79.2744 43.08 79.1344 43.56 79.1344 44.2V46.3H84.0244ZM90.859 40H93.259V40.81C93.919 40.27 94.719 40 95.659 40H97.849V42.4H95.359C94.699 42.4 94.209 42.62 93.889 43.06C93.569 43.5 93.409 43.93 93.409 44.35V55H90.859V40Z" fill="#00FF85"/>
</svg>
